HIERARCHY
ROOT Hips
{
	OFFSET 0.000000 0.000000 0.000000
	CHANNELS 6 Xposition Yposition Zposition Zrotation Yrotation Xrotation 
	JOINT LHipJoint
	{
		OFFSET 0.000000 0.000000 0.000000
		CHANNELS 3 Zrotation Yrotation Xrotation
		JOINT LeftUpLeg
		{
			OFFSET 1.363060 -1.794630 0.839290
			CHANNELS 3 Zrotation Yrotation Xrotation
			JOINT LeftLeg
			{
				OFFSET 2.448110 -6.726130 0.000000
				CHANNELS 3 Zrotation Yrotation Xrotation
				JOINT LeftFoot
				{
					OFFSET 2.562200 -7.039590 0.000000
					CHANNELS 3 Zrotation Yrotation Xrotation
					JOINT LeftToeBase
					{
						OFFSET 0.157640 -0.433110 2.322550
						CHANNELS 3 Zrotation Yrotation Xrotation
						End Site
						{
							OFFSET 0.000000 0.000000 0.000000
						}
					}
				}
			}
		}
	}
	JOINT RHipJoint
	{
		OFFSET 0.000000 0.000000 0.000000
		CHANNELS 3 Zrotation Yrotation Xrotation
		JOINT RightUpLeg
		{
			OFFSET -1.305520 -1.794630 0.839290
			CHANNELS 3 Zrotation Yrotation Xrotation
			JOINT RightLeg
			{
				OFFSET -2.542530 -6.985550 0.000000
				CHANNELS 3 Zrotation Yrotation Xrotation
				JOINT RightFoot
				{
					OFFSET -2.568260 -7.056230 0.000000
					CHANNELS 3 Zrotation Yrotation Xrotation
					JOINT RightToeBase
					{
						OFFSET -0.164730 -0.452590 2.363150
						CHANNELS 3 Zrotation Yrotation Xrotation
						End Site
						{
							OFFSET 0.000000 0.000000 0.000000
						}
					}
				}
			}
		}
	}
	JOINT LowerBack
	{
		OFFSET 0.000000 0.000000 0.000000
		CHANNELS 3 Zrotation Yrotation Xrotation
		JOINT Spine
		{
			OFFSET 0.028270 2.035590 -0.193380
			CHANNELS 3 Zrotation Yrotation Xrotation
			JOINT Spine1
			{
				OFFSET 0.056720 2.048850 -0.042750
				CHANNELS 3 Zrotation Yrotation Xrotation
				JOINT Neck
				{
					OFFSET 0.000000 0.000000 0.000000
					CHANNELS 3 Zrotation Yrotation Xrotation
					JOINT Neck1
					{
						OFFSET -0.054170 1.746240 0.172020
						CHANNELS 3 Zrotation Yrotation Xrotation
						JOINT Head
						{
							OFFSET 0.104070 1.761360 -0.123970
							CHANNELS 3 Zrotation Yrotation Xrotation
							End Site
							{
								OFFSET 0.000000 0.000000 0.000000
							}
						}
					}
				}
				JOINT LeftShoulder
				{
					OFFSET 0.000000 0.000000 0.000000
					CHANNELS 3 Zrotation Yrotation Xrotation
					JOINT LeftArm
					{
						OFFSET 3.362410 1.200890 -0.311210
						CHANNELS 3 Zrotation Yrotation Xrotation
						JOINT LeftForeArm
						{
							OFFSET 4.983000 -0.000000 -0.000000
							CHANNELS 3 Zrotation Yrotation Xrotation
							JOINT LeftHand
							{
								OFFSET 3.483560 -0.000000 -0.000000
								CHANNELS 3 Zrotation Yrotation Xrotation
								JOINT LeftFingerBase
								{
									OFFSET 0.000000 0.000000 0.000000
									CHANNELS 3 Zrotation Yrotation Xrotation
									JOINT LeftHandIndex1
									{
										OFFSET 0.715260 -0.000000 -0.000000
										CHANNELS 3 Zrotation Yrotation Xrotation
										End Site
										{
											OFFSET 0.000000 0.000000 0.000000
										}
									}
								}
								JOINT LThumb
								{
									OFFSET 0.000000 0.000000 0.000000
									CHANNELS 3 Zrotation Yrotation Xrotation
									End Site
									{
										OFFSET 0.000000 0.000000 0.000000
									}
								}
							}
						}
					}
				}
				JOINT RightShoulder
				{
					OFFSET 0.000000 0.000000 0.000000
					CHANNELS 3 Zrotation Yrotation Xrotation
					JOINT RightArm
					{
						OFFSET -3.136600 1.374050 -0.404650
						CHANNELS 3 Zrotation Yrotation Xrotation
						JOINT RightForeArm
						{
							OFFSET -5.241900 -0.000000 -0.000000
							CHANNELS 3 Zrotation Yrotation Xrotation
							JOINT RightHand
							{
								OFFSET -3.444170 -0.000000 -0.000000
								CHANNELS 3 Zrotation Yrotation Xrotation
								JOINT RightFingerBase
								{
									OFFSET 0.000000 0.000000 0.000000
									CHANNELS 3 Zrotation Yrotation Xrotation
									JOINT RightHandIndex1
									{
										OFFSET -0.622530 -0.000000 -0.000000
										CHANNELS 3 Zrotation Yrotation Xrotation
										End Site
										{
											OFFSET 0.000000 0.000000 0.000000
										}
									}
								}
								JOINT RThumb
								{
									OFFSET 0.000000 0.000000 0.000000
									CHANNELS 3 Zrotation Yrotation Xrotation
									End Site
									{
										OFFSET 0.000000 0.000000 0.000000
									}
								}
							}
						}
					}
				}
			}
		}
	}
}
MOTION
Frames: 11
Frame Time: 0.008333
0.949501 17.771375 -35.605258 -2.886736 1.381307 6.224017 1.206808 0.582841 0.302904 -18.818045 -11.250582 -11.225535 1.983993 10.482509 30.033341 0.604818 0.385945 -12.608764 0.048100 1.415100 3.891700 -3.618774 -0.829264 -0.910176 30.408814 6.121169 -9.408361 -2.273705 -9.256467 27.022609 -0.723416 -0.938127 -16.330415 -0.008400 -0.590600 1.622900 4.530973 -2.603142 1.337190 1.184290 -3.434262 -2.570289 1.103692 -2.002870 -1.062076 -2.505239 -0.191947 -14.623997 4.202591 -0.188549 10.058834 0.474100 -0.021700 7.669500 1.150511 4.496550 -0.822228 -90.284754 9.002104 19.448161 18.009384 -28.773562 -4.318490 0.457951 -0.064427 6.169838 3.280813 40.961397 1.850100 -7.125000 0.000000 0.000000 -43.780600 65.898300 -24.048400 -0.420812 -4.950129 -1.805298 85.720799 -6.409612 -2.527476 -9.717561 17.906093 -1.199163 1.078695 0.361943 -3.010050 -17.950210 18.520466 -6.117200 7.125000 0.000000 0.000000 5.895700 -11.001700 4.687800 
0.950110 17.773001 -35.609730 -2.848030 1.254110 6.268825 1.210513 0.582081 0.301899 -18.870742 -11.337615 -11.247561 1.985267 10.485439 30.040100 0.599294 0.392290 -12.551739 0.075800 1.776000 4.887000 -3.622518 -0.824015 -0.904661 30.368675 6.359737 -9.339078 -2.254522 -9.225309 26.922047 -0.685828 -1.190572 -16.275148 -0.026200 -1.045500 2.874100 4.489790 -2.600605 1.325556 1.178028 -3.430350 -2.581503 1.123930 -2.002899 -1.081295 -2.684747 -0.225017 -14.684014 4.306285 -0.184946 10.329494 0.561300 -0.014900 7.787800 1.139785 4.511174 -0.828519 -90.341315 9.108381 19.382616 18.069615 -28.851464 -4.348731 0.457386 -0.066427 6.292100 3.369387 40.934544 1.907500 -7.125000 0.000000 0.000000 -43.654900 65.906400 -23.975500 -0.429145 -4.935721 -1.805324 85.727912 -6.433494 -2.499343 -9.731592 17.944522 -1.219210 1.066509 0.361280 -2.989778 -17.619497 18.292738 -5.928700 7.125000 0.000000 0.000000 6.109800 -11.274200 4.825600 
0.948688 17.772087 -35.612982 -3.042136 1.254163 6.124905 1.204011 0.585332 0.308569 -18.665005 -11.114704 -11.144427 1.974451 10.459588 29.973741 0.610978 0.373731 -12.657625 0.036500 1.232900 3.389800 -3.625251 -0.826223 -0.900865 30.601585 6.452083 -9.200967 -2.268237 -9.262290 27.035457 -0.704603 -1.182466 -16.471907 -0.028100 -1.082400 2.975700 4.700563 -2.620044 1.532314 1.203776 -3.439248 -2.602942 1.053998 -2.002694 -1.293436 -2.151027 -0.229604 -14.193318 3.649984 -0.300312 10.138690 0.169600 -0.105700 7.618900 1.177448 4.460457 -0.816177 -90.349995 9.329623 19.339097 18.154807 -28.956166 -4.387633 0.455884 -0.063446 6.176196 3.156458 41.150136 1.776400 -7.125000 0.000000 0.000000 -44.197100 65.994900 -24.411000 -0.393886 -4.962918 -1.807551 85.752800 -6.454987 -2.503035 -9.693410 17.850058 -1.195694 1.072565 0.358169 -2.887573 -17.812635 18.401748 -6.030600 7.125000 0.000000 0.000000 5.984700 -11.138600 4.742400 
0.952753 17.771477 -35.617454 -2.691701 1.209449 6.174552 1.208887 0.586886 0.311890 -19.077706 -11.254523 -11.121248 1.965600 10.447300 29.926555 0.610973 0.329315 -12.566704 0.069000 1.694700 4.662600 -3.606592 -0.825252 -0.902035 30.143082 6.193446 -9.410904 -2.289903 -9.277285 27.096158 -0.737189 -0.838229 -16.339998 -0.019800 -0.909000 2.498400 4.362335 -2.626965 1.528474 1.152870 -3.448356 -2.627036 1.114247 -2.008302 -1.343435 -2.531027 -0.255621 -14.279480 4.185410 -0.276429 10.115684 0.462600 -0.064700 7.627200 1.150909 4.484769 -0.825371 -90.340130 9.463527 19.380775 18.222626 -29.037350 -4.420320 0.455009 -0.059945 6.179510 2.589537 41.193977 1.404500 -7.125000 0.000000 0.000000 -44.796700 65.854100 -24.660900 -0.425539 -4.933463 -1.807736 85.765389 -6.591862 -2.147010 -9.769366 18.003375 -1.232050 1.070641 0.345055 -3.290514 -17.323275 18.666739 -5.954500 7.125000 0.000000 0.000000 6.320800 -10.898600 5.043300 
0.952956 17.764261 -35.616641 -2.631802 1.191102 6.188753 1.206558 0.583549 0.306701 -19.158844 -11.231257 -11.115268 1.954538 10.442856 29.905834 0.566862 0.605868 -12.624640 0.048900 1.426400 3.923000 -3.607017 -0.830561 -0.906569 30.065414 6.065046 -9.495147 -2.300431 -9.293447 27.147024 -0.736248 -0.767044 -16.229678 -0.017200 -0.847800 2.330100 4.233594 -2.572350 1.387093 1.154880 -3.394804 -2.592490 1.158409 -1.976988 -1.170239 -2.139793 -0.251784 -14.221825 3.659811 -0.333432 10.100822 0.160700 -0.119800 7.603900 1.172944 4.469520 -0.813797 -90.369268 9.226128 19.464971 18.090292 -28.880687 -4.355592 0.456637 -0.061839 6.352136 2.741388 41.313027 1.507100 -7.125000 0.000000 0.000000 -44.847800 65.982700 -24.821500 -0.399306 -4.970796 -1.805587 85.738162 -6.386693 -2.208597 -9.696108 17.859048 -1.199994 1.072993 0.354640 -3.472671 -17.481469 18.604715 -5.988400 7.125000 0.000000 0.000000 6.211200 -10.951000 4.948000 
0.955497 17.764261 -35.621825 -2.713096 1.177404 6.187492 1.210055 0.589012 0.313486 -19.065590 -11.339252 -11.128023 1.959590 10.445540 29.916624 0.575459 0.517009 -12.530096 0.068400 1.687400 4.642500 -3.604073 -0.828517 -0.896917 30.150144 6.104515 -9.518148 -2.302383 -9.299880 27.166555 -0.745408 -0.757951 -16.317547 -0.016100 -0.819700 2.252900 4.404982 -2.615953 1.481230 1.148356 -3.434424 -2.654560 1.076003 -2.001063 -1.409750 -2.513958 -0.187864 -14.118859 4.187583 -0.191799 10.274651 0.473000 -0.019600 7.651500 1.152289 4.486080 -0.827638 -90.319570 9.556160 19.489206 18.184413 -28.982894 -4.400864 0.454850 -0.061341 6.213067 2.790127 41.193326 1.536900 -7.125000 0.000000 0.000000 -44.608200 65.914400 -24.598200 -0.423409 -4.927491 -1.806281 85.799637 -6.586946 -2.009962 -9.783321 18.023980 -1.247944 1.054530 0.365801 -3.291571 -17.378856 18.125713 -5.793000 7.125000 0.000000 0.000000 6.267000 -11.472200 4.925700 
0.954887 17.764667 -35.621012 -2.863597 1.127906 6.116155 1.204705 0.588099 0.309267 -18.915293 -11.222746 -11.090039 1.961309 10.458605 29.957584 0.556341 0.717843 -12.741749 0.045800 1.381900 3.800300 -3.615107 -0.826718 -0.903282 30.327590 6.249586 -9.364608 -2.294504 -9.292699 27.140602 -0.733369 -0.854272 -16.320357 -0.021700 -0.950300 2.612200 4.495150 -2.572198 1.420739 1.179622 -3.384800 -2.604276 1.121571 -1.977872 -1.230707 -2.464578 -0.244235 -14.250123 4.170385 -0.272638 10.314703 0.446200 -0.055500 7.690000 1.156887 4.495627 -0.822715 -90.382862 9.382347 19.496895 18.135183 -28.924757 -4.370248 0.456068 -0.059689 6.349478 2.302300 41.666624 1.225700 -7.125000 0.000000 0.000000 -45.833000 66.095100 -25.579800 -0.414867 -4.938973 -1.800904 85.835560 -6.436099 -2.038969 -9.822565 18.111410 -1.267951 1.052992 0.360473 -3.548883 -17.082544 18.242550 -5.733800 7.125000 0.000000 0.000000 6.468500 -11.373500 5.099300 
0.951127 17.763041 -35.627821 -3.121223 1.098530 6.122690 1.208994 0.589508 0.307953 -18.605804 -11.255506 -11.149031 1.974106 10.467951 29.994357 0.565536 0.591397 -12.559049 0.061200 1.595800 4.390000 -3.623158 -0.829642 -0.899678 30.645928 6.277863 -9.351217 -2.280370 -9.275739 27.078258 -0.724741 -0.898524 -16.288226 -0.015700 -0.810000 2.226300 4.823320 -2.644662 1.455914 1.194604 -3.471348 -2.611214 0.971378 -2.021993 -1.298155 -2.412037 -0.222113 -14.035747 4.193388 -0.270806 10.138536 0.445500 -0.053000 7.573900 1.158532 4.487627 -0.818185 -90.323776 9.452963 19.300267 18.134258 -28.918082 -4.372276 0.456713 -0.060751 6.407349 2.325364 41.301224 1.231700 -7.125000 0.000000 0.000000 -45.217800 65.849000 -24.929500 -0.413428 -4.940989 -1.794708 85.916672 -6.427887 -1.772210 -9.798431 18.061400 -1.254646 1.058921 0.357097 -3.590079 -17.165034 18.391680 -5.810500 7.125000 0.000000 0.000000 6.417400 -11.206500 5.080700 
0.951838 17.762025 -35.627517 -2.928449 1.211885 6.099981 1.206152 0.589029 0.311175 -18.819796 -11.213827 -11.145812 1.974717 10.471625 30.002699 0.572910 0.573500 -12.621185 0.027400 1.069500 2.940000 -3.617911 -0.827689 -0.903398 30.431148 6.206685 -9.337478 -2.283545 -9.273364 27.080392 -0.731826 -0.883892 -16.344556 -0.017700 -0.860000 2.363800 4.547717 -2.643899 1.431885 1.194534 -3.477861 -2.618952 1.134278 -2.024740 -1.290137 -2.531663 -0.278106 -14.064054 4.314842 -0.319136 10.294640 0.510800 -0.067200 7.639600 1.155281 4.500313 -0.821238 -90.399180 9.464157 19.549957 18.164972 -28.962883 -4.387534 0.455756 -0.060357 6.417993 2.309272 41.535109 1.227400 -7.125000 0.000000 0.000000 -45.610900 66.006500 -25.344400 -0.414273 -4.931706 -1.792703 85.906014 -6.398513 -2.029304 -9.779318 18.028091 -1.251153 1.055945 0.352865 -3.511695 -17.006508 18.345325 -5.742800 7.125000 0.000000 0.000000 6.522100 -11.268800 5.156200 
0.955396 17.767208 -35.633513 -2.821695 1.053459 6.178425 1.211827 0.585097 0.307474 -18.947670 -11.294488 -11.233379 1.983744 10.489382 30.053152 0.570266 0.568424 -12.578099 0.069400 1.699400 4.675500 -3.617284 -0.825019 -0.896048 30.277220 6.362308 -9.398782 -2.280535 -9.265984 27.054827 -0.704414 -0.974667 -16.170475 -0.029000 -1.099900 3.023700 4.479209 -2.618186 1.390422 1.171340 -3.446316 -2.628461 1.105694 -2.008102 -1.293104 -2.547153 -0.281972 -14.092067 4.267412 -0.316060 10.289272 0.497400 -0.071700 7.644600 1.150663 4.499125 -0.823409 -90.406573 9.496426 19.389470 18.199003 -29.005918 -4.404589 0.455843 -0.059069 6.428539 2.020725 41.449988 1.034100 -7.125000 0.000000 0.000000 -45.739800 65.860300 -25.281900 -0.417413 -4.932147 -1.794018 85.922231 -6.363304 -1.979571 -9.757721 18.005759 -1.248707 1.061096 0.321680 -3.474975 -16.479694 18.772750 -5.703700 7.125000 0.000000 0.000000 6.886500 -10.855500 5.507300 
0.954481 17.762634 -35.632700 -2.790007 0.989050 6.060613 1.210451 0.589038 0.310794 -19.028106 -11.153470 -11.111044 1.975043 10.481937 30.033658 0.540478 0.783661 -12.687398 0.031200 1.140300 3.135000 -3.609162 -0.829428 -0.907706 30.212083 6.063226 -9.377797 -2.293748 -9.273906 27.091449 -0.750435 -0.600038 -16.148618 -0.031500 -1.145800 3.149900 4.451792 -2.636275 1.475928 1.160350 -3.465044 -2.610174 1.063969 -2.015263 -1.301035 -2.279786 -0.219354 -13.891417 4.008562 -0.289931 10.179180 0.337300 -0.070300 7.557100 1.163405 4.482331 -0.815751 -90.378950 9.509012 19.475794 18.218787 -29.031430 -4.407644 0.455735 -0.060360 6.422582 2.338052 41.922708 1.256000 -7.125000 0.000000 0.000000 -46.224900 66.281900 -26.028300 -0.405946 -4.950659 -1.790416 85.977133 -6.374771 -1.722095 -9.792491 18.060561 -1.264671 1.053576 0.338985 -3.591010 -16.617092 18.477734 -5.656000 7.125000 0.000000 0.000000 6.786600 -11.159100 5.383700 
